/* XPM */
static char *_7f24ed047a34d9cf1c2992568cbd69eLHkdORBpiZf69JKP[] = {
/* columns rows colors chars-per-pixel */
"40 40 113 2 ",
"   c #000000",
".  c #0B0000",
"X  c #150000",
"o  c #1D0000",
"O  c #130808",
"+  c #000313",
"@  c #090913",
"#  c #131313",
"$  c #220000",
"%  c #2B0000",
"&  c #360000",
"*  c #390000",
"=  c #3A0313",
"-  c #440000",
";  c #4B0000",
":  c #550000",
">  c #5A0000",
",  c #620000",
"<  c #6A0000",
"1  c #6B0A0A",
"2  c #720000",
"3  c #7B0000",
"4  c #800000",
"5  c #8A0000",
"6  c #920000",
"7  c #9D0000",
"8  c #A20000",
"9  c #AA0000",
"0  c #B40000",
"q  c #BD0000",
"w  c #C50000",
"e  c #CB0000",
"r  c #D40000",
"t  c #DA0000",
"y  c #E20000",
"u  c #EC0000",
"i  c #F30000",
"p  c #FF0000",
"a  c #FA020B",
"s  c #FF0B0B",
"d  c #EA0313",
"f  c #F60313",
"g  c #FF1212",
"h  c #FF1C1C",
"j  c #DC093C",
"k  c #EC0521",
"l  c #E91D3B",
"z  c #FF2222",
"x  c #FF2F2F",
"c  c #FF3333",
"v  c #FF3D3C",
"b  c #AA1170",
"n  c #C95151",
"m  c #E24A4A",
"M  c #FF4343",
"N  c #FF5252",
"B  c #FF5956",
"V  c #FF5B5B",
"C  c #FF6666",
"Z  c #FF6E6E",
"A  c #FF7171",
"S  c #1A1BC9",
"D  c #2C1EC9",
"F  c #1717FF",
"G  c #1D1DFF",
"H  c #1F27FF",
"J  c #3620EE",
"K  c #3A24EE",
"L  c #2425FF",
"P  c #2E2EFF",
"I  c #3624F3",
"U  c #3333FF",
"Y  c #631FCB",
"T  c #5F5FC9",
"R  c #7676FF",
"E  c #7779FF",
"W  c #7879FF",
"Q  c #87158D",
"!  c #931483",
"~  c #8238B4",
"^  c #8057D4",
"/  c #8371EE",
"(  c #FF8787",
")  c #FF8D8D",
"_  c #FF9494",
"`  c #FF9A9A",
"'  c #FFA5A5",
"]  c #FFAAAA",
"[  c #8383FF",
"{  c #9D9DFF",
"}  c #C9C9C9",
"|  c #FFC9C9",
" . c #FFD5D5",
".. c #C4C4FF",
"X. c #C8C8FF",
"o. c #D5D5FF",
"O. c #D6D6FF",
"+. c #FFE0E0",
"@. c #FFECEC",
"#. c #FFEDED",
"$. c #FEEDEE",
"%. c #FFEFEF",
"&. c #E5E5FF",
"*. c #E7E7FF",
"=. c #FFF0F0",
"-. c #FFF2F2",
";. c #FFF3F3",
":. c #FFF6F6",
">. c #FFF9F9",
",. c #FFFEFE",
"<. c #FEFEFF",
"1. c #FEFFFF",
"2. c white",
/* pixels */
"                            . X X X X X X X X X X .                             ",
"                            - w w w w w w w w w q &                             ",
"                            > p p p p p p p p p i -                             ",
"                  $ * & & & 3 p p p p p p p p p i < & & & & X                   ",
"                  6 i u u u i p p p p p p p p p p i u u u u <                   ",
"                  7 p p p p p p p p p p p p p p p p p p p p 2                   ",
"            & 8 7 t p p p p p p p p p p p p p p p p p p p p w 8 6 %             ",
"            > p p p p p p p p p p p p p p p p p p p p p p p p p u *             ",
"        X X 1 h h h h h s p p p p p p p p p g h h h h g p p p p u ; X X         ",
"      X 9 r m  . . . .| v p p p p p p p p p (  . . . .) p p p p i t t 3         ",
"      X e p N 2.2.2.2.-.v p p p p p p p p p ' 2.2.2.2.' p p p p p p p 6         ",
"      O n C _ 2.2.2.2.:._ C M p p p p h C Z | 2.2.2.2.| Z Z x p p p p 6         ",
"      # } 2.2.2.2.2.2.2.2.2.' p p p p v -.2.2.2.2.2.2.2.2.2.A p p p p 6         ",
"      # } 2.2.2.2.2.2.2.2.2.' p p p p v $.2.2.2.2.2.2.2.2.2.Z p p p p 6         ",
"      @ T W W W R ..2.2.2.2.' p p p p l / E W R [ &.2.2.2.2.Z p p p p 6         ",
"      + S L L L F { 2.2.2.2.' p p p p j J L L L U o.2.2.2.2.Z p p p p 6         ",
"  $ * = D L L L G { 2.2.2.2.' p p p p j K L L L U o.2.2.2.2.Z p p p p 9 * * X   ",
"  5 i d Y L L L G { 2.2.2.2.' p p p p j K L L L U o.2.2.2.2.Z p p p p i i i >   ",
"  6 p f Y H L G F { 2.2.2.2.] p p p p j I L L G P o.2.2.2.2.A p p p p p p p ,   ",
"  6 p a b Q ~ W R X.2.>.] ) V p p p p k ! Q ^ W [ &.2. .) ) v p p p p p p p ,   ",
"  6 p p p p B 2.2.2.2.-.M p p p p p p p p p ' 2.2.2.2.' p p p p p p p p p p ,   ",
"  6 p p p p N $.$.$.$.+.M p p p p p p p p p _ $.$.$.-.` p p p p p p p p p p ,   ",
"  6 p p p p g c c c c c s p p p p p p p p p z c c c c z p p p p p p p p p p ,   ",
"  6 p p p p p p p p p p p p p p p p p p p p p p p p p p p p p p p p p p p p ,   ",
"  6 p p p p p p p p p p p p p p p p p p p p p p p p p p p p p p p p p p p p ,   ",
"  6 p p p p p p p p p p p p p p p p p p p p p p p p p p p p p p p p p p p p ,   ",
"  6 p p p p p p p p p p p p p p p p p p p p p p p p p p p p p p p p p p p p ,   ",
"  6 p p p p p p p p p p p p p p p p p p p p p p p p p p p p p p p p p p p p ,   ",
"  6 p p p p p p p p p p p p p p p p p p p p p p p p p p p p p p p p p p p p ,   ",
"  6 p p p p p p p p p p p p p p p p p p p p p p p p p p p p p p p p p p p p ,   ",
"  6 p p p p p p p p p p p p p p p p p p p p p p p p p p p p p p p p p p p p ,   ",
"  6 p p p p p p p p p p p p p p p p p p p p p p p p p p p p p p p p p p p p ,   ",
"  6 p p p p i q 0 y p p p p p p p r 0 0 0 0 y p p p p p p p r 0 w i p p p p ,   ",
"  6 p p p p t % . 7 p p p p p p p < . . . . 8 p p p p p p p 2 . & i p p p p ,   ",
"  6 p p i i r o   6 i i p p p p p <         8 p p p p p i i <   % u i i p p ,   ",
"  6 p i 4 ; - .   % ; < u p p p p <         8 p p p p t : ; $   . - - 7 p p ,   ",
"  6 p i ;             % u p p p p <         8 p p p p r X             2 p p ,   ",
"  3 t r -             % w t t t t >         5 t t t t 0 X             , t r :   ",
"  X $ o .             . o o o o $ .         X o o o $ X               . $ o .   ",
"                                                                                "
};
