/* XPM */
static char *bd01f41e0e2d4af9be3a4e7bad2c44080UrleONKNUO3WNjA[] = {
/* columns rows colors chars-per-pixel */
"40 40 212 2 ",
"   c #010301",
".  c #0B0101",
"X  c #000B01",
"o  c #0B0A03",
"O  c #030109",
"+  c #0C040C",
"@  c #000D0B",
"#  c #0B0D09",
"$  c #130102",
"%  c #1A0004",
"&  c #130509",
"*  c #120B0A",
"=  c #120B00",
"-  c #001300",
";  c #001B00",
":  c #091900",
">  c #001108",
",  c #0B130B",
"<  c #10110C",
"1  c #111015",
"2  c #200003",
"3  c #002300",
"4  c #002C03",
"5  c #003403",
"6  c #003A03",
"7  c #003E0C",
"8  c #00340B",
"9  c #053816",
"0  c #004400",
"q  c #004513",
"w  c #004D16",
"e  c #004519",
"r  c #024A1D",
"t  c #0E421C",
"y  c #024C23",
"u  c #004F28",
"i  c #0B4A21",
"p  c #045422",
"a  c #0D5B29",
"s  c #0B5226",
"d  c #1A572E",
"f  c #105C35",
"g  c #016424",
"h  c #02692B",
"j  c #13622E",
"k  c #0A6C3C",
"l  c #126534",
"z  c #176A37",
"x  c #0C7030",
"c  c #027D3A",
"v  c #15743A",
"b  c #167C3C",
"n  c #1D7C43",
"m  c #187F48",
"M  c #227C46",
"N  c #33764A",
"B  c #15853B",
"V  c #1B8C47",
"C  c #24834B",
"Z  c #27874A",
"A  c #258C57",
"S  c #2A9557",
"D  c #33945E",
"F  c #369A5B",
"G  c #388B57",
"H  c #2FA45E",
"J  c #2D9F61",
"K  c #379C65",
"L  c #28A966",
"P  c #2EA968",
"I  c #39A66A",
"U  c #25BA60",
"Y  c #38B66F",
"T  c #37B36D",
"R  c #2DB471",
"E  c #3ABC79",
"W  c #499D5F",
"Q  c #469460",
"!  c #478866",
"~  c #41A56A",
"^  c #45AA6D",
"/  c #55B66F",
"(  c #49BA7C",
")  c #50B77F",
"_  c #5EBE7E",
"`  c #3ACE6E",
"'  c #3BCB77",
"]  c #3CD57C",
"[  c #1EEE7E",
"{  c #1EF97B",
"}  c #2AEC75",
"|  c #26E879",
" . c #33ED7C",
".. c #31ED75",
"X. c #2DF57D",
"o. c #2DF97C",
"O. c #25F77E",
"+. c #3BF67E",
"@. c #33FA7F",
"#. c #3AF77E",
"$. c #4CC47E",
"%. c #42C277",
"&. c #50C479",
"*. c #42FD7E",
"=. c #5DBD80",
"-. c #67B585",
";. c #35C580",
":. c #3ED88F",
">. c #3ED183",
",. c #1CFD85",
"<. c #29EC85",
"1. c #3DEE83",
"2. c #33EE8D",
"3. c #3BED8B",
"4. c #34E781",
"5. c #2DF787",
"6. c #26FB83",
"7. c #2DFD85",
"8. c #2AF58A",
"9. c #24FE8B",
"0. c #2DFE8B",
"q. c #25F487",
"w. c #34F383",
"e. c #3CF586",
"r. c #34FD85",
"t. c #3CFC85",
"y. c #33F68B",
"u. c #3CF58D",
"i. c #34FE8C",
"p. c #3BFD8C",
"a. c #3CEF94",
"s. c #26FF91",
"d. c #2DFF92",
"f. c #33F495",
"g. c #3CF692",
"h. c #35FE92",
"j. c #3BFD92",
"k. c #37FF99",
"l. c #3CFF9A",
"z. c #3FF699",
"x. c #43C583",
"c. c #4CCB86",
"v. c #58CA87",
"b. c #4BD385",
"n. c #47DD85",
"m. c #40D18E",
"M. c #4DDC8D",
"N. c #4BD985",
"B. c #53D48A",
"V. c #54DB8B",
"C. c #59D488",
"Z. c #50CE91",
"A. c #5ACC98",
"S. c #5DDC94",
"D. c #5DDA9A",
"F. c #69CE8A",
"G. c #6CD18F",
"H. c #62CA95",
"J. c #77CA9D",
"K. c #69DF9C",
"L. c #63D693",
"P. c #44E48B",
"I. c #42EB8C",
"U. c #4BEB8E",
"Y. c #49E688",
"T. c #50EC8C",
"R. c #57E28D",
"E. c #41FB83",
"W. c #42F28E",
"Q. c #43FC8C",
"!. c #4AFC8D",
"~. c #46F488",
"^. c #44ED93",
"/. c #4BED93",
"(. c #49E493",
"). c #54E593",
"_. c #5BE495",
"`. c #54EC96",
"'. c #5BE39B",
"]. c #54EB9A",
"[. c #57EA9C",
"{. c #45F492",
"}. c #4BF394",
"|. c #44FB92",
" X c #4BFB94",
".X c #44F39A",
"XX c #4CF49B",
"oX c #43FC9A",
"OX c #4BFE9C",
"+X c #55F196",
"@X c #51FF94",
"#X c #53F49A",
"$X c #5CF49D",
"%X c #52FB9C",
"&X c #5AFA9C",
"*X c #58F196",
"=X c #63E49E",
"-X c #66E799",
";X c #68F09C",
":X c #58EFA0",
">X c #44FCA3",
",X c #4AF3A0",
"<X c #56F2A2",
"1X c #5BF4A3",
"2X c #5AFCA5",
"3X c #53FCA5",
"4X c #5DFFB3",
"5X c #6BE3A1",
"6X c #66EAA3",
"7X c #6AFFAC",
"8X c #66F5A6",
"9X c #75F9AE",
/* pixels */
". .     O   O O O     . .   X - - 3 6 0 0 0 5 ; - X X X X X   . % .   X @ @   . ",
".         O + O   @     X X 3 p W / C.V.R.V.v.=.Q N 9 - X     & $ . @ @ X   + . ",
"          . .   @ X X - 3 n c.].n.U.}.{.g.{.XX`.).'.D.K e ; X   . &     @   + . ",
"    @ X   $ $   X - 4 m 5X7X3.j.j.j.h.8.8.y.g.g.oXz.a.2X6XC 3 X   <     1 + . . ",
"    >     & % $ X u E 3X2.| 5.k.,.9.s.d.i.i.i.y.8.0.d.q.3.7X$.w - X o   . & . . ",
"O   X     o .   d v.XX<.0.k.i.6.9.9.9.0.i.p.t.p.0.k.9.,.h.j.I.-Xl -   * . .     ",
"    O   o   X i K./.oXh.7.r.t.t.j.i.i.r.e.E.Q.Q.t.r.0.0.{ 7.j.W.B.r X o & .     ",
"    . . . X 8 $.^.j.5.7.|.Q.#.t.t.t.p.Q.!.Q.E.t.t.t.r.r.i.i.7.u.2X( 4   o .     ",
"    $ .   - J XX0.d.h.5.Q. X+.!.Q.Q.Q.Q.Q.Q.t.r.t.o.@.Q.t. .Q.Q.W.[.G X         ",
"    . . X a >.l.s.,.7.p.Q.e.w.Q.Q.Q.Q.Q.Q.t.r.7.7.p.@.} E.@X!.1.j.I.v.8 X X     ",
"      , - I XXk.d.d.y.e.u.OXOX5.i.i.p.t.t.t.r.7.{ 0.j.p.e.1.I.Q.0.u.8XZ ; X     ",
"      - 4 S.oX8.q.u.I.*X#XI.z.h.0.0.i.p.p.t.i.i.h.O.p.|.W.}.XXu.6.j.U.L.4 X X   ",
"  X   X l 6Xf.9.<.7XF.Z n P :.>Xi.0.i.t.Q.Q.t.p.u. X#X] ' M.(.oXi.i.4.9Xy - X   ",
"  X X X D :X8.k.&XB 3 - ; ; q ' g.i.p.p.t.p.p.u.}.N.V 5 4 6 h `. X| W.1XM -   . ",
". . X - P .Xy..X&.4 X o X X X u ).e.p.p.i.0.0.u.).b 5 - ; X - g T...|.(.K -   $ ",
". . X - R .XoX#XZ - o $ . *   ; V.1.e.p.i.d.h.{.b.6 - = . . X ; ` !. ./.~ - . $ ",
"      - x.,X^.].V ; X .   *   - '  .Q.p.i.i.j.}.H 3 : . . .   ; U } u.}.~ - X . ",
"O     - x.XX^.].Y 5 X   X X X 4 n.r.p.p.i.h.j.^.$.3 X o . # X ; ] w.j.}.~ - X   ",
"      ; c..Xu.}.).g ; ; ; - ; D /.p.p.r.i.j.j.W.M.b ; X X X ; k U.p.i.}.^ - X   ",
"      3 N.j.y.Q.}.;XF 5 4 z ) =X{.p.p.r.i.j.j.g.#XB.h 3 ; 4 k D.{.p.y.}.^ -     ",
"      5 Y.p.i.i.p.~.R.-X-XV.].}.u.p.p.p.p.i.h.j.g.}.).S.T c.6X].W.t.y.}.^ -   . ",
"      6 T.i.7.7.p. .Y.&X#X{.OXg.i.p.j.j.p.i.i.i.j.y.W.%X^.#X2X{.u.p.i.XX^ - X   ",
"  o   7 `.i.7.7.7.r.Q.e.w.i.h.i.h.j.j.j.p.p.i.i.i.h.i.w.oXu.4.p.p.p.i.}.^ - X   ",
"  o   q #Xi.i.7.7.r.p.r.j.j.6.h.h.h.p.j.p.p.p.p.i.6.j.7.i.i.p.t.t.t.y.^.~ - X   ",
"      r $Xi.i.7.r.i.p.p.i.h.i.i.i.p.j.g.p.p.t.p.i.i.0.0.7.r.t.t.t.p.i.I.^ -     ",
"O     y 1Xh.p.r.i.i.p.p.h.h.h.h.j.j.j.j.Q.Q.Q.p.p.i.0.7.r.r.t.t.t.p.i.^.^ -     ",
"O O   y 2Xh.j.p.p.p.p.j.h.h.j.j.j.p.j.p.j.Q.Q.Q.Q.t.i.r.r.t.E.E.t.p.j.}.~ -     ",
"O O   y 1Xj.|.p.t.t.p.j.h.j.|.|.Q.p.p.p.j.j.|.!.Q.Q.p.i.r.t.E.E.t.p.j.}.I -     ",
"O   X r <Xj.|.Q.t.p.p.h.h.j.|.|.Q.p.p.i.h.j.|. X{.|.p.i.i.p.Q.E.t.p.i.#XF -     ",
"    X r #Xi.Q.t.t.p.i.i.h.h.|.Q.Q.p.i.i.h.j.|. X{.{.j.p.i.i.t.p.t.p.i.#XS -     ",
"    X r #Xy.Q.t.t.p.i.i.0.i.Q.Q.Q.Q.i.0.d.h.j.}.}.}.g.h.i.i.i.p.t.p.y.#XZ - X   ",
"    X e #Xy.Q.E.t.t.i.i.i.i.p.Q.Q.t.i.i.i.i.p.g.|.|.j.p.i.i.i.i.p.r.5.XXC - X   ",
"  o   t ].g.u.@XQ.p.r.7.p.p.Q.t.i.|.t.E.E.t.j.i.h.j.t.E.E.r.h.h.6.h.0.}.v - -   ",
"  X   8 [.>X|.4.w.p.O.i.Q.w.|.i.5.7.t.*.*.t.i.h.0.j.t.*.#.t.h.0.j.7.[ %XM X   X ",
"X - X 4 <Xf.2.OXj.i.6.7.i.i.i.5.h.oX} t.t.X.oX8.h.i.r.t.p.o.i.h.| OXj.P.z X     ",
"X X X 4 (.f.XX+X}.3.j.l.oXg.u.OX%X3.p.t.r.p.3.3X^.OXp.X.X.p.OX}.&XP.{.8Xr X ,   ",
"#   X 4 m.4XK.x g C./.oX{./.6XS c ).%Xp.w.{.8XL E M.W.p.p.{.).x.%._.].D.i X     ",
".     ; A.Z.z - - w c.M.'.5Xl 3 3 v b.`.$X_.C 8 4 D _.+X+X_.K 5 6 ~ =XH.9 X     ",
". $ $   ! f X X X - 3 -.J.s 3 X - X 7 _ G.a -     - j G.G.j - X - 3 A J.-   ,   ",
"% $ 2 . ; - X X X X - ; 3 ; X X     ; 6 5 ;   $ $   ; q q ;   o X ; 4 u X #     "
};
