/* XPM */
static char *cf2e9e9af67a464e9a4f84c91a54867f8C15ofvRU9CYLmZw[] = {
/* columns rows colors chars-per-pixel */
"40 40 197 2 ",
"   c #020201",
".  c #0A0300",
"X  c #050A01",
"o  c #0B0A01",
"O  c #03010B",
"+  c #09000D",
"@  c #05080E",
"#  c #0B090F",
"$  c #120501",
"%  c #110B01",
"&  c #141300",
"*  c #1A1500",
"=  c #171800",
"-  c #1C1B00",
";  c #020112",
":  c #0C0413",
">  c #251C00",
",  c #231500",
"<  c #1D2100",
"1  c #232400",
"2  c #2A2500",
"3  c #292A00",
"4  c #322C00",
"5  c #322500",
"6  c #343200",
"7  c #393500",
"8  c #3D3C00",
"9  c #493F00",
"0  c #454401",
"q  c #4C4D00",
"w  c #514200",
"e  c #4D5000",
"r  c #555301",
"t  c #5D5602",
"y  c #5F5B06",
"u  c #55550D",
"i  c #645E00",
"p  c #625600",
"a  c #6C5F19",
"s  c #5D6100",
"d  c #5C6315",
"f  c #646400",
"g  c #666B0F",
"h  c #726D00",
"j  c #6B7000",
"k  c #7B7B00",
"l  c #727202",
"z  c #696116",
"x  c #7D771B",
"c  c #7C7716",
"v  c #6C6328",
"b  c #747124",
"n  c #7F820D",
"m  c #88890B",
"M  c #97990C",
"N  c #8A8617",
"B  c #908C1E",
"V  c #A3A60D",
"C  c #AAAD16",
"Z  c #BFB716",
"A  c #8D8727",
"S  c #8D8A21",
"D  c #9E9C22",
"F  c #90902E",
"G  c #989326",
"H  c #939236",
"J  c #A39A3C",
"K  c #A0A222",
"L  c #BABD24",
"P  c #ACAC38",
"I  c #A4AA30",
"U  c #BFBF3D",
"Y  c #B9B934",
"T  c #C4BE36",
"R  c #B9C229",
"E  c #DCDF00",
"W  c #DBDB0B",
"Q  c #C2C11B",
"!  c #E4DE00",
"~  c #EBDE02",
"^  c #F0DE00",
"/  c #DDE500",
"(  c #DEE211",
")  c #E5E401",
"_  c #ECE602",
"`  c #E6EA02",
"'  c #ECE901",
"]  c #E6E50B",
"[  c #EBE50A",
"{  c #E6E809",
"}  c #ECEB0B",
"|  c #F2E602",
" . c #F2EA02",
".. c #F2E60A",
"X. c #F3EB0B",
"o. c #FBEB09",
"O. c #EDF203",
"+. c #EEF60B",
"@. c #F3F202",
"#. c #F5F309",
"$. c #F9F307",
"%. c #E3E312",
"&. c #EBE613",
"*. c #ECEB14",
"=. c #EDE51A",
"-. c #EDEA1C",
";. c #E6E518",
":. c #F5E713",
">. c #F1ED13",
",. c #F0ED18",
"<. c #F6EA1B",
"1. c #ECF111",
"2. c #EDF21C",
"3. c #EEF81D",
"4. c #F1F116",
"5. c #F8F01F",
"6. c #F0F819",
"7. c #C5C42B",
"8. c #CCC636",
"9. c #C3C535",
"0. c #D8DF37",
"q. c #D3D834",
"w. c #E5DD20",
"e. c #DAE13C",
"r. c #E6E724",
"t. c #ECEB23",
"y. c #EDEB2A",
"u. c #E9E727",
"i. c #F5EC24",
"p. c #F3EE2B",
"a. c #EFF026",
"s. c #F2F322",
"d. c #F6FA23",
"f. c #F3F32B",
"g. c #F6FB2C",
"h. c #F8F825",
"j. c #ECED3D",
"k. c #E6E638",
"l. c #F2E932",
"z. c #EFF438",
"x. c #F5F434",
"c. c #FCFB34",
"v. c #F2F53A",
"b. c #F5FB3B",
"n. c #FAFD3B",
"m. c #F8F431",
"M. c #A19E41",
"N. c #A8A844",
"B. c #BCBC4E",
"V. c #A8A151",
"C. c #B1AD52",
"Z. c #B1B05E",
"A. c #C9BE52",
"S. c #BFC04B",
"D. c #BFC241",
"F. c #CCC445",
"G. c #C0C04E",
"H. c #CFCA48",
"J. c #C4C641",
"K. c #D0C84C",
"L. c #D3D545",
"P. c #CECE52",
"I. c #DFDF5B",
"U. c #D6D656",
"Y. c #E6DA52",
"T. c #DDE248",
"R. c #DFE150",
"E. c #EAE945",
"W. c #EBE74B",
"Q. c #E7E948",
"!. c #E7E342",
"~. c #F5EC47",
"^. c #F6F343",
"/. c #F5FB43",
"(. c #FBFD43",
"). c #F5F34A",
"_. c #F7FA4E",
"`. c #FCFC4B",
"'. c #FEF549",
"]. c #E3E45D",
"[. c #EBEA53",
"{. c #F4EA55",
"}. c #EDF15C",
"|. c #FCF653",
" X c #FEFD53",
".X c #FFFB59",
"XX c #F2F357",
"oX c #D2CD69",
"OX c #DDDC65",
"+X c #D7D46B",
"@X c #EEEC69",
"#X c #E9E569",
"$X c #F1EF68",
"%X c #F3F164",
"&X c #FCFA63",
"*X c #EFF879",
"=X c #F7F870",
/* pixels */
". . .   O ; ; O       . . . . o = 0 t h h i q 1 o o . . .                       ",
". %     O O O O   . % . . 8 x P L.E.). X'.^.E.T.J.N 0 % . .               .   . ",
"      @     @   . . . q R k.z.n.s.*.[ [ [ <.*.s.s.(.|.T i % .       O           ",
"    O     X   . . 7 Y  Xg.+.` ) ` '  .| | | ) _  .) >.p..XH.y . .     # #     X ",
"O       X   . o f j.n.W ] _ '  .' _  .| o.^ o. ._ ' ) _ ] f.`.M % o .   @       ",
"          % . B (.} X.} [ X. ._ ' _ | | o.~ <.=.i.s.X.) $.) ) (.J.- . o     .   ",
"    X   . . D ^.%.} _ _ [ ~ | ' _ ' ' ) ' s.W.I.H.W.m.{ ' ' ' { n.9.> . .       ",
"      . . A ).*.} _ _ _ [ .._ _ ' ` _ ' *.j.l o o 6 7.c.[ ' ' ' { b.U o .       ",
"      . f `.r.*.[ _ _ _ [ { ' ' ' ) ` { _.n X     . 6 W.-. .' ' ) 1.g.M .   .   ",
"    . 1 k.1.} [ _ ' ' ' { { ' ' ' ' ) *.XX0       . o T c.! )  .' ) ` b.y . .   ",
"  X . D c.' ) ' ' ' ` ` ` ` [ [ _ )  .) v.s .   O . % 8.i. . .) _ ' ` s.L.- . . ",
"    8 [.%.' '  ._ ' ` ` ` ` [ [ ' _  .) c.V o . . o t ~.=. . . .| _ ' ) z.k . . ",
". . K v.*._ _ _ [ _ ' ` _ _ ' '  ._ | ) { n.C q 6 k k.i.) |  ._ ...._ ' 6.0.& . ",
". - T.2.) X.~ X._ ' ' ' ' ' ' ' )  . . . .>.f.b.(.x.h._ o.' '  ._ X. .E O./.r . ",
". r /.` ) _ ..:._ ' ' ' ' ' | _ } ) ' )  ._ _ } ] *.!  .) ' ' }  .~  .@.E /.N.. ",
". F b.` @. .:.[ ' ' ' ' ' ' | _ } }  . . ._  .' '  ._ _  .} ) { &.=.p.x.`.}.Z.. ",
"o S.f.'  . ...[ ' ' ' ' ' ' ' ' '  . .' _  . ._ ' ' ' _ [ } ,.f.`.}.OXN.g 3 o   ",
"- P.f.'  .| ' ' _ ' ' ' _ ' ' ' ' _ ' ' ' _ ' } { &.-.p.(.`.!.8.m e &     X     ",
"3 ].a._  .| ' ' ' ' ' ' _ ' ' ' ' #.' ) O.' ) 4.f.`.%XU.J z 4 % . . . .         ",
"3 ].t._  .| ' ' ' ' ' ' _ ' ' ' ' ! _ 4.-.c.`.!.9.N 0 * . . . . . . O O         ",
"3 ].t._  .|  .' ' ' ' _ _ ' _ ' ' _ p.k.F.J a 5 . . .                 O         ",
"3 I.t._ | |  .' ' ' _ _ _ ' _ _ ' ) p.Z 9 $ $ . . o o X                         ",
"- P.f._  .|  .' ' ' _ _ _ ' ' ' ' ) } h.x.Q h 2 o .                 O O         ",
". B.f.'  . . .' ' ' _ _ _ ' ' ' ' ' ' ` } d.v.Q.K r & . X     .                 ",
". H v.` _  . ._ ' ' _ _ _ ' ' ' ' ' ' ' _ } } *.g.b.q.m 8 % . .   :             ",
". u .X) @._ _ ..' ' _ _ _ ' ' ' ' ' ' ' ' ' ' ' ` _ 2.b.XXF.c 7 . . . o   .   O ",
". & R.f.)  ...[ ' ' _ _ | ' ' ' ' ' ' ' ' ' '  ._ [ ) ] -.f.m.j.L j < X .       ",
"    G ).&.X.] } ' ' ' _ | ' ' ' '  .' ' ' _  .| | | _ _  . . .) d.b.e.I 0 = .   ",
"    7 @Xu.&.] } ' '  .| | | ' ' ' } _ ' ' '  . .|  . ._ ) _  .X.` ` 3./.*Xd X   ",
"    . J |.t.,.{ ` '  . .| | ' ' ' ' ' _ ' ' ' '  ._ _ '  . ._ ) _ @.` u.U.<     ",
"  X . , Y.l.&.} ' '  . .| | ..' ' ' ' ' ' ' _ _ ' _ _ ' ' _ '  . .[ ;.&Xy .     ",
"    . . p &Xy.] ' '  .| | | .. .' ' ' ' ' ' _ [ ' ' ' ' ' ' ' ' ' %..XG . o     ",
"    + . . x &Xu.{ @._ | ..| | | _ ' ' ' '  . ._ ' _ ' ' ' ' ' } { v.G.. o       ",
"  @ O   o . S &Xu.} } ' X.X._  ._ _ _ _ _  . . ._ #._ ) ' _ } ( (.R & . + +     ",
"X       . o . x &Xr.} ' )  . .) | _ _  . . .|  . .! ' [ [ *.t. XP & .   O O o   ",
"        .   . . r ].`.%.} ' #.' ' _ _  . .| _ _  ...X.&.w.'.{.N . o   : :       ",
"          .   . . * M.=X/.2./ ` @.' ' ' ' ' ' ' ' ) *.x.&XA.w . . O + O O   .   ",
"                O . . 7 P [._.n.t.t.t.t.t.t.y.y.n.`.).Y r o . $ : ; O           ",
"    @ O O   X       . . . > v V.oXOX@X$X%X@X#X+XC.b 7 o . o .       o       O ; ",
"    O O ; @   X     O ; ; + . . $ 2 0 r r q 4 & . . .   .     .             O ; "
};
