/* XPM */
static char *_d184c442b844f7cc75ab243d1fa8796SqwUAfN05z10Htz8[] = {
/* columns rows colors chars-per-pixel */
"40 40 135 2 ",
"   c #000000",
".  c #0C0403",
"X  c #0D0A06",
"o  c #150603",
"O  c #1A0703",
"+  c #120D06",
"@  c #1E0805",
"#  c #120D08",
"$  c #171109",
"%  c #1B140B",
"&  c #220701",
"*  c #250A04",
"=  c #330D05",
"-  c #21170E",
";  c #241A0F",
":  c #2C1D0F",
">  c #2F2212",
",  c #312313",
"<  c #372816",
"1  c #392A15",
"2  c #3E2C1A",
"3  c #4D1307",
"4  c #411F0F",
"5  c #551508",
"6  c #5B1608",
"7  c #601708",
"8  c #681909",
"9  c #761D09",
"0  c #7C1E0A",
"q  c #47341E",
"w  c #48331B",
"e  c #4F3821",
"r  c #513A21",
"t  c #5D4324",
"y  c #664929",
"u  c #6C4C29",
"i  c #784A28",
"p  c #74532F",
"a  c #7E5A33",
"s  c #831F0A",
"d  c #8D220B",
"f  c #96240C",
"g  c #98240C",
"h  c #A2270C",
"j  c #AC290D",
"k  c #B42C0D",
"l  c #C42E0E",
"z  c #C82F0E",
"x  c #CE320F",
"c  c #D2320E",
"v  c #DA340E",
"b  c #C03D17",
"n  c #DE3511",
"m  c #E3360E",
"M  c #EB370F",
"N  c #FD370A",
"B  c #FD3A0E",
"V  c #E33610",
"C  c #EB3710",
"Z  c #FD3B10",
"A  c #825D33",
"S  c #8C6336",
"D  c #936939",
"F  c #9E713E",
"G  c #A1733F",
"H  c #E64416",
"J  c #E14418",
"K  c #F74415",
"L  c #FA4215",
"P  c #F74817",
"I  c #FC421B",
"U  c #F74918",
"Y  c #F94818",
"T  c #FC4622",
"R  c #FB4A25",
"E  c #FD4E29",
"W  c #EF5D25",
"Q  c #F25A26",
"!  c #FC532C",
"~  c #FC5733",
"^  c #FC5936",
"/  c #FC5C3B",
"(  c #DF632F",
")  c #EE632A",
"_  c #ED6931",
"`  c #E8773A",
"'  c #E77A3C",
"]  c #A67540",
"[  c #AC7A43",
"{  c #B27F45",
"}  c #FC6748",
"|  c #FB694A",
" . c #FC6F53",
".. c #FD7457",
"X. c #FD7D61",
"o. c #B68146",
"O. c #B88247",
"+. c #BB8449",
"@. c #BF8849",
"#. c #C58B4C",
"$. c #CE8C4B",
"%. c #CC914F",
"&. c #DE924E",
"*. c #CF9350",
"=. c #D39652",
"-. c #DD9D55",
";. c #E58241",
":. c #E18846",
">. c #E09550",
",. c #E09F57",
"<. c #DBA159",
"1. c #E2A057",
"2. c #E3A158",
"3. c #E5A258",
"4. c #E7A359",
"5. c #FB876C",
"6. c #FB8168",
"7. c #FC8B72",
"8. c #FC8B73",
"9. c #FC937C",
"0. c #FC9A86",
"q. c #FD9F8A",
"w. c #FDA692",
"e. c #FDA695",
"r. c #FCAB9B",
"t. c #FCB8AA",
"y. c #FDC8BF",
"u. c #FCCCC0",
"i. c #FDDAD6",
"p. c #FDE1DB",
"a. c #FEE4E1",
"s. c #FEE9E5",
"d. c #FEF2F0",
"f. c #FEFFFF",
"g. c #FEFEFE",
/* pixels */
"                                                                                ",
"                                                                                ",
"                                                                                ",
"                                                            # + + + X           ",
"                                                          - ] { { O.S .         ",
"                                                          ; %.,.-.1.[ X         ",
"                                                . e t t t p =.-.-.-.[ X         ",
"                                                # +.,.-.-.-.-.-.-.,.[ X         ",
"                                        X X X X - [ =.-.-.-.*.*.*.=.F X         ",
"                                      X D O.O.O.[ w > G 1.[ , > > , ;           ",
"                                      X O.4.1.2.=.;   D 2.] .                   ",
"                                  q u p A A A A p $   D 2.] .                   ",
"                                  D 4.=.<             D 4.] .                   ",
"              o = = = = = = = : > S @.{ >       . , 1 A [ a .                   ",
"              5 C C C C C M H $.*.y $ $ .       % +.=.r   .                     ",
"              6 Z Z Z Z Z B U >.-.t             % #.-.e                         ",
"        . 9 d k Z Z Z B Q ' ` ) W b h d o   2 A A y t -                         ",
"        o c Z Z Z Z Z B _ <.&.L B Z Z m O   y 2.%.%                             ",
"        o c Z Z Z Z Z B Q ;.` L Z V v l = & i -.$.4 & * * O                     ",
"        o c Z Z Z Z Z Z Z Z Z Z Z 9 o = x m ( -.&.J m m m j .                   ",
"        o c Z B B B Z Z Z Z Z Z Z 8   @ V B _ -.&.Y Z Z Z l                     ",
"        o c B } w.5.Z Z Z Z n 0 9 s s f C B _ -.&.P Z Z Z V d d =               ",
"        o c N 8.f.u.Z B B Z z .   g Z Z Z B _ -.&.U Z Z Z Z Z Z 7               ",
"        o c N X.a.t.! ! I Z z .   g Z Z Z B ) &.:.K Z Z Z Z Z Z 7               ",
"        o c Z I T  .p.s.6.B z .   g Z Z Z Z L K K Z Z Z Z Z Z Z 7               ",
"        o c Z Z N | f.f.8.N z .   g Z B N N B Z Z Z Z Z Z Z Z Z 7               ",
"        . 8 0 j B ~ e.r.| B z .   g B R 9.0. .Z Z Z Z Z Z Z Z Z 7               ",
"              5 Z Z Z B Z Z x .   g B / d.f.w.B B Z Z Z Z Z Z Z 7               ",
"              3 m m m m m m k .   g B ^ p.d.q.I I Z Z Z Z Z Z Z 7               ",
"              . * * * * * * @     g Z L ~ ! 9.i.y.E B Z Z Z Z Z 7               ",
"                                  f Z Z B N 9.f.s.! B Z Z Z Z Z 6               ",
"                                  = 6 8 V B ^ X...I B Z Z c 6 6 *               ",
"                                      O v Z B B B Z Z Z Z z                     ",
"                                      o k c x x x x x x c h .                   ",
"                                        o O o o O O o o O o                     ",
"                                                                                ",
"                                                                                ",
"                                                                                ",
"                                                                                ",
"                                                                                "
};
