/* XPM */
static char *dd2cc91097d44732960cb49ac740f900[] = {
/* columns rows colors chars-per-pixel */
"40 40 244 2 ",
"   c #190D04",
".  c #150200",
"X  c #061C03",
"o  c #0D1B01",
"O  c #0C190B",
"+  c #141502",
"@  c #131A01",
"#  c #191B00",
"$  c #14140C",
"%  c #14180A",
"&  c #1A1A0B",
"*  c #19140A",
"=  c #150E14",
"-  c #0D1B14",
";  c #0C1819",
":  c #141413",
">  c #1A1513",
",  c #151914",
"<  c #14131C",
"1  c #19141C",
"2  c #111C18",
"3  c #0F0E13",
"4  c #221216",
"5  c #210C1B",
"6  c #072206",
"7  c #150D25",
"8  c #140D2C",
"9  c #190E28",
"0  c #0A1B2C",
"q  c #061826",
"w  c #141223",
"e  c #181324",
"r  c #14122B",
"t  c #19132B",
"y  c #13182E",
"u  c #180B3A",
"i  c #0D1134",
"p  c #09193D",
"a  c #071A37",
"s  c #121533",
"d  c #131C3D",
"f  c #11103A",
"g  c #002235",
"h  c #031846",
"j  c #091648",
"k  c #141847",
"l  c #1A0C5B",
"z  c #071957",
"x  c #131557",
"c  c #080C45",
"v  c #0B156B",
"b  c #051967",
"n  c #0B1572",
"m  c #0C157B",
"M  c #041878",
"N  c #170D66",
"B  c #002375",
"V  c #FEBE67",
"C  c #FBC95C",
"Z  c #FFDA55",
"A  c #F0CF68",
"S  c #FAD967",
"D  c #FDC979",
"F  c #EDD575",
"G  c #F8DB7E",
"H  c #EECB67",
"J  c #FDE87B",
"K  c #FDE068",
"L  c #091481",
"P  c #0C148C",
"I  c #03188A",
"U  c #121385",
"Y  c #0A149C",
"T  c #081894",
"R  c #131798",
"E  c #180A8C",
"W  c #13239C",
"Q  c #0E12AC",
"!  c #0618A7",
"~  c #1410AF",
"^  c #100FB2",
"/  c #0718B7",
"(  c #101BB1",
")  c #0C0DAF",
"_  c #2C18B5",
"`  c #573F9F",
"'  c #443DBF",
"]  c #3D41BE",
"[  c #76649E",
"{  c #5640AC",
"}  c #7E5BAB",
"|  c #7774A9",
" . c #746AB2",
".. c #7767BB",
"X. c #7873BC",
"o. c #696FA1",
"O. c #080ACA",
"+. c #100FC9",
"@. c #0913C4",
"#. c #0519C7",
"$. c #1213C3",
"%. c #0102D9",
"&. c #120CD6",
"*. c #0019D4",
"=. c #0311DD",
"-. c #0B15DE",
";. c #001CDD",
":. c #0616D5",
">. c #1816DC",
",. c #321CD2",
"<. c #0027C5",
"1. c #0021D5",
"2. c #0125DA",
"3. c #0B24D8",
"4. c #1623D1",
"5. c #2534D9",
"6. c #2432D3",
"7. c #010BEB",
"8. c #0908E6",
"9. c #0212E6",
"0. c #0B12E4",
"q. c #031BE5",
"w. c #091AE5",
"e. c #0214EC",
"r. c #0A14ED",
"t. c #011AEC",
"y. c #0B1DED",
"u. c #1014ED",
"i. c #1818E6",
"p. c #0003F5",
"a. c #0B04F5",
"s. c #010DF4",
"d. c #0004FD",
"f. c #0C04FF",
"g. c #010CFE",
"h. c #0A0CFF",
"j. c #1204FF",
"k. c #130DFF",
"l. c #0115F5",
"z. c #0B14F3",
"x. c #021AF3",
"c. c #0A1BF4",
"v. c #0112FE",
"b. c #0014FF",
"n. c #0116FF",
"m. c #0017FF",
"M. c #0216FF",
"N. c #0115FE",
"B. c #0416FC",
"V. c #0616FF",
"C. c #0214FE",
"Z. c #0A15FD",
"A. c #0018FF",
"S. c #011AFF",
"D. c #0519FF",
"F. c #021AFD",
"G. c #0A1AFE",
"H. c #1515FF",
"J. c #1A12FE",
"K. c #121DFF",
"L. c #1716F2",
"P. c #150CE3",
"I. c #251DFA",
"U. c #0022E3",
"Y. c #0022ED",
"T. c #0726E6",
"R. c #1325EC",
"E. c #0222F4",
"W. c #012BF4",
"Q. c #0122FF",
"!. c #0B21FE",
"~. c #002BF8",
"^. c #0C2AFF",
"/. c #0B24F2",
"(. c #0035FF",
"). c #102BF3",
"_. c #2429E9",
"`. c #3A35E5",
"'. c #2729F9",
"]. c #3926E2",
"[. c #4D3FD2",
"{. c #4A33F0",
"}. c #4848CB",
"|. c #5D4ECF",
" X c #5F53D1",
".X c #4745D6",
"XX c #675AC8",
"oX c #7457D1",
"OX c #7A6CC7",
"+X c #6D69DA",
"@X c #7C65DA",
"#X c #7271C9",
"$X c #4940E7",
"%X c #7667E4",
"&X c #6C54F4",
"*X c #876BB9",
"=X c #887AB7",
"-X c #837EA7",
";X c #A87EA4",
":X c #866ACA",
">X c #936FC9",
",X c #A5959B",
"<X c #A58E90",
"1X c #B3AC99",
"2X c #978DA7",
"3X c #8A86B8",
"4X c #9789B5",
"5X c #9795B4",
"6X c #9196A7",
"7X c #A68AA9",
"8X c #A888B7",
"9X c #B092B3",
"0X c #FDAE9D",
"qX c #EABA97",
"wX c #F5BC96",
"eX c #FEBC8A",
"rX c #F9BBA7",
"tX c #EDBBBC",
"yX c #C9AEB7",
"uX c #FFCB8D",
"iX c #FFC288",
"pX c #FCD383",
"aX c #FCD38B",
"sX c #F6D788",
"dX c #F6C79A",
"fX c #FBD494",
"gX c #FDD898",
"hX c #EAD297",
"jX c #F9E38A",
"kX c #F8E193",
"lX c #E7D9A8",
"zX c #FFD6A2",
"xX c #FFCBB0",
"cX c #EFCAAF",
"vX c #F8E6A9",
"bX c #9893C5",
"nX c #948BD3",
"mX c #A999CC",
"MX c #AB96D4",
"NX c #A991C6",
"BX c #9C84E4",
"VX c #C283C9",
"CX c #DFC9D6",
"ZX c #FBC4C1",
/* pixels */
"r < % $ < w < $ @ & > + w $.Z.2.x.x.x.x.x.x.x.x.e.c.u.P - + 9 > + : r r < % % , ",
": w w : + @ $ 7 O r y O 0 ( M.t.B.B.B.B.B.B.B.B.v.M.z.Y 0 ; < @ 8 : @ @ $ w < : ",
"@ : 8 7 $ + * < i U R M T w.M.N.M.M.M.M.M.M.M.M.N.M.Z.=.Y Y P j 8 $ @ @ : w w : ",
"@ @ : 7 8 7 : @ p $.Z.x.N.N.D.D.N.N.N.N.N.N.N.N.S.F.M.v.z.Z.r.I % : < w w < : $ ",
": : * $ : r k x z @.M.S.N.x.1.t.N.N.N.N.N.N.N.N.N.x.N.v.t.F.*.B d s r w < < : $ ",
"< w 1 + @ - L P./ e.D.F.F.x.x.N.N.N.N.N.N.N.N.N.N.x.N.N.x.D.N./ @.n - o $ r w : ",
": e e * o a / h.M.M.M.D.D.D.N.D.N.N.N.N.N.N.N.N.F.F.N.N.F.D.M.N.Z.! 0 o % w w : ",
"+ $ 1 r c M #.D.S.;.e.g.z.N.v.;.S.S.S.S.S.S.S.S.v.N.N.e.#.t.v.t.D.#.b q $ : : $ ",
": < o v c.x.l.x.N.S.e.z.Z.K.7.M.v.F.F.S.N.S.c.c.G.q.D.g.c.g.G.e.B.v.F.-.a : * : ",
": w o n Z.F.N.D.S.F.l.v.g.M.g.N.v.N.S.N.N.S.N.g.v.l.N.g.c.B.!.E.N.v.S.0.p < > : ",
": w o n Z.S.v.M.l.N.S.F.Q.Q.E.Y.F.S.v.v.l.G.G.S.Y.U.F.v./.9.g.v.M.v.N.r.j < > : ",
": < o n Z.S.N.D.y.D.S.F.F.v.S.l.E.D.v.v.e.M.N.v.x.N.M.g.G.x.s.G.N.v.S.r.j < * $ ",
"% < o v z.F.N.D.R.v.d.c.=.p.k.f.q.v.N.F.x.g.7.#.p.f.k.h.g.F.v.K.F.N.S.0.p < & % ",
": < o v z.x.l.F.l.g.u.+X|  .OX .R.v.v.E.N.h.`.X.|  .*X}.r.F.g.h.x.N.S.e.h < & $ ",
"w r O m Z.S.N.D.N.G.`.CXG sXfXF '.Z.l.E.v.H.%XlXG sXsX,X4.Q.N.g.F.N.S.l.j r 1 < ",
"s f ; L Z.S.v.D.x.v._ cXC iXrXwX_.r.x.~.N.f...S qXwXgX,XO.N.x.y.S.N.S.v.z f t w ",
"h r.N.l.N.G.v.x.~.Z._ tXV iXrXwX_.h.g.W.N.j.oXZ eX0XuX<X8.Q.E.G.N.F.S.N.F.M.Q o ",
"h r.N.l.N.G.v.x.v.g.].CXpXaXfXF 5.z.l.U.e.h.@XkXS aXjX<X:.S.e.v.N.F.S.N.F.M.Q o ",
"h r.N.l.N.G.v.x.E.G._.nX2X4XNX2XT.e.l.E.l.e..X4X2XnXMXXXc.Q.q.K.N.F.N.N.F.M.Q o ",
"h r.N.l.N.G.v.x.S.g.d.y.-.a.J.j.F.v.g.Z.D.N.r.i.r.f.J.8.g.S.=.N.N.F.N.N.F.M.Q o ",
"h r.N.l.N.G.v.x.y.S.F.Y.U.e.F.9.Q.N.g.g.N.F.N.g.t.v.v.l.!.^.x.G.N.F.N.N.F.M.Q o ",
"h r.N.l.N.G.v.x.g.v.S.S.S.N.S.N.x.x.G.G.t.t.F.G.q.F.F.l.F.e.l.N.N.F.N.N.F.M.Q o ",
"h r.N.l.N.G.v.x.G.!.x.N.N.S.N.G.9.B.K.c.t.l.v.B.v.S.!.M.G.s.G.G.N.F.N.N.F.M.Q o ",
"h r.N.l.N.G.v.x.d.l.7.v.v.G.s.G.v.h.g.s.v.N.v.z.Z.l.x.7.z.g.G.s.N.D.N.N.F.M.Q o ",
"a 8.e.N.G.8. X9X8X8XNX| k.G.B.u.T.8X7XnX8X9X5.S.l.^.h.XX9XVX;XMX} 7.(.l.Z.v./ X ",
"z k.G.v.N.d.OXJ D uXzX1X0.N.F.S.5.xXfXF D pX}.d.x.l.%.5XjXaXA jXmXd.N.t.K.l.! $ ",
"c k.s.9.).L.*XS S pXfX1X>.v.N.v.,.rXxXF zXsX[.8.J.f.8.bXhXsXS S 6X8.0.@.S.x.W 5 ",
"d H.N.6.5X8X>X:XOX .X.=X4X7X7X<X5X4XOXo.#X-X3XbX7X2X5X3X .:X:X:X3XBXmX' v.F.R . ",
"i g.7.] fXpX*Xd.v.7.f.{.cXG uXS lX,.p.d.d.L.yXgXuXS vX Xp.h.d.d.` hXG { g.S.( # ",
"x G.t.$XZXgX=Xg./.3.r.{.vXG dXaXsX>.c.K.x.I.qXC dXH kXXXg.W.U.2.&XvXJ |.D.N.) 6 ",
"h l.e.L.+X..}.e.g.G.s.'.#X..X.#X>X!.G.f.;.G.@X*XX...X.`.G.t.S.l.R.OX[ _.N.z.~ 6 ",
"g z.Z.g.2.=.B.k.t.Q.*.F.%.j.0.d.a.~.S.j.T.Q.d.v.7.h.h.a.c.=.K.a.q.h.8.S.v.>.~ q ",
"N u.E.x.G.L.z.q.v.1.E.t.Z.Z.M.2.Z.c.S.S.x.t.l.B./.N.G.t.x.G.N.U.F.T.c.N.x.N.^ 8 ",
"i :.x.x.M.H.v.S.N.x.B./ Y P =.F.M.N.N.N.x.x.N.v.#.! ! I ! Z.g.F.v.M.M.v.x.N.Q + ",
"; -.S.S.M.Z.v.S.F.M.0.j 3 o L g.q.S.N.v.v.N.S.S.P q s - k >.v.F.v.M.v.N.S.M.^ o ",
"0 z.D.S.D.Z.v.q.Y.M.&.y + @ v h.U.S.S.x.N.D.F.S.U o > + t P.e.F.w.x.N.x.G.Z.+.2 ",
"2 $.r.e.S.N.v.w.;.z.$.k u > m r.*.N.S.<.;.x.w.e.E o u 7 l P.*.F.w.x.S.x.w.u.~ 2 ",
"o v L / N.N.v.Z.I M z 2 9 : j b b r.N.t.N.e.T v k o e = c U b ! v.N.S.N.Q U x o ",
"+ r 0 T M.F.N.Z.c O - @   + < X O +.M.S.N.0.k + % $ # @ < 2 X n v.F.S.l.m w : % ",
"1 1 @ L D.U.;.w.l , r > 4 4 u + w &.c.<.U./ d   = u & + 8 + + E t.2.Q.z.v +   t "
};
